<svg xmlns="http://www.w3.org/2000/svg" style="display: none;">
  <symbol viewBox="0 0 48 48" id="currencyPiggy">
    <path style="stroke-linecap: round;stroke-linejoin: round; fill: #ffb900; stroke: var(--piggyMain);"
      d="M8.0723,20.7261a12.4759,12.4759,0,0,1,3.6466-5.6695c-.9317-.7453,0-5.3767,0-5.3767s3.7264,1.65,4.3918,2.4221c0,0,2.8747-3.4868,11.2059-3.4868S43.5,15.0566,43.5,23.654s-6.2285,11.339-6.2285,11.339a19.9775,19.9775,0,0,1-1.4905,4.3918H32.48A21.3853,21.3853,0,0,1,31.07,36.8562s-2.6351.3194-4.525.3194a23.0513,23.0513,0,0,1-3.966-.4259,6.4031,6.4031,0,0,1-.9316,2.6351H18.0538c-1.1179-.9582-1.6769-3.9659-1.6769-3.9659S7.327,31.32,5.4105,28.871c-1.038-1.9431-.905-6.2551-.905-6.2551A7.9406,7.9406,0,0,1,8.0723,20.7261Z">
    </path>
    <path style="stroke-linecap: round;stroke-linejoin: round; fill: none; stroke: var(--piggyMain);"
      d="M19.5444,13.7789a11.5482,11.5482,0,0,1,7.3464-2.156,13.1871,13.1871,0,0,1,7.9852,2.5287"></path>
    <circle style="fill: var(--piggyMain);" cx="11.6124" cy="21.285" r="0.75"></circle>
  </symbol>
  <symbol viewBox="0 0 16 16" id="earth" >
    <rect x="0" y="0"  style="fill:var(--earthOnly);" width="16rem" height="16rem" rx="10" />
    <path
      d="M13,3.05A7,7,0,1,0,13,13,7,7,0,0,0,13,3.05ZM4,4A5.55,5.55,0,0,1,8,2.4a5.2,5.2,0,0,1,.69.07V3.89A1.63,1.63,0,0,1,7.06,5.53H6.24a1.64,1.64,0,1,0,0,3.27H9.51a2,2,0,0,1,1.64.82,18.77,18.77,0,0,0,1.49,1.5A4.91,4.91,0,0,1,12,12a5.52,5.52,0,0,1-2.69,1.48L7.06,11.06a2.45,2.45,0,0,0-1.64-.62H3A5.6,5.6,0,0,1,4,4Z">
    </path>
  </symbol>
</svg>